<svg xmlns="http://www.w3.org/2000/svg"
shape-rendering="geometricPrecision"
width="4000" height="4000" viewBox="0 0 1024 1024"><rect width="100%" height="100%" fill="#FBFBFB" />
  <metadata>null</metadata>

<path d="
M 43.838 776.473
C 45.576 775.878 47.335 775.209 48.846 774.14
C 59.515 766.589 58.789 751.709 58.757 740.002
C 58.695 716.836 58.672 693.668 58.706 670.502
C 58.726 657.004 59.701 643.035 58.091 629.611
C 57.53 624.938 55.363 620.235 51.625 617.263
C 50.089 616.041 48.219 615.306 46.44 614.526
C 45.622 614.168 44.816 614.353 44.673 613.329
C 52.709 612.748 60.946 613.193 69.006 613.154
C 87.439 613.064 105.869 613.286 124.302 613.04
C 131.61 612.943 138.926 612.998 146.235 612.83
C 147.871 612.793 149.576 612.824 151.181 612.473
C 151.954 612.304 153.192 611.881 153.913 612.276
C 153.604 621.999 154.137 631.772 154.197 641.504
C 154.213 644.167 154.262 646.832 154.26 649.495
C 154.259 650.392 154.572 651.843 154.092 652.628
C 153.176 653.104 152.983 651.32 152.824 650.797
C 152.12 648.493 151.289 646.29 150.257 644.113
C 147.645 638.599 144.04 633.801 139.488 629.754
C 129.044 620.468 114.554 618.374 101.103 618.185
C 97.868 618.14 94.664 618.178 91.451 618.557
C 90.191 618.706 88.571 618.642 87.505 619.404
C 86.652 621.958 86.841 625.093 86.786 627.755
C 86.696 632.133 86.575 636.515 86.574 640.894
C 86.573 654.955 86.72 669.089 86.379 683.142
C 87.08 683.391 88.177 682.936 88.918 682.876
C 91.102 682.698 93.262 682.428 95.429 682.107
C 108.123 680.229 120.472 671.733 123.356 658.729
C 125.175 658.474 124.476 661.641 124.43 662.993
C 124.254 668.156 124.455 673.347 124.459 678.514
C 124.466 686.845 124.434 695.175 124.459 703.506
C 124.465 705.836 124.419 708.166 124.429 710.496
C 124.433 711.404 124.681 712.838 124.266 713.652
C 123.422 713.963 123.126 713.237 122.921 712.52
C 122.461 710.914 122.215 709.231 121.669 707.65
C 120.378 703.91 118.22 700.242 115.608 697.273
C 110.351 691.298 101.587 688.925 93.935 688.552
C 91.43 688.43 88.865 688.322 86.407 688.888
C 85.955 692.71 86.276 696.666 86.296 700.509
C 86.331 707.647 86.398 714.783 86.471 721.92
C 86.592 733.81 85.773 746.311 88.968 757.891
C 90.533 763.562 93.465 769.448 98.295 773.002
C 100.35 774.514 102.431 775.411 104.874 776.093
C 105.573 776.288 106.817 776.312 106.675 777.285
C 105.175 777.541 103.523 777.306 102.006 777.284
C 98.338 777.232 94.668 777.28 91 777.262
C 80.334 777.21 69.667 777.14 59.001 777.181
C 55.239 777.196 51.447 777.03 47.689 777.219
C 46.708 777.268 44.269 777.707 43.626 776.82
C 43.697 776.704 43.767 776.589 43.838 776.473 Z"
opacity="1" fill="rgb(5,78,47)" fill-rule="evenodd" />
<path d="
M 125.469 749.096
C 126.118 745.327 126.911 741.875 128.823 738.499
C 134.751 728.032 147.332 722.712 157.895 718.271
C 164.817 715.362 172.051 712.393 177.06 706.541
C 184.535 697.809 182.644 680.095 171.442 675.437
C 166.702 673.466 160.238 674.312 156.035 677.166
C 153.319 679.01 151.433 681.443 151.883 684.87
C 152.27 687.818 154.451 690.124 155.863 692.619
C 157.392 695.323 158.01 699.03 156.97 702.018
C 153.832 711.033 139.448 713.352 134.532 704.54
C 129.078 694.763 134.976 683.768 143.233 677.972
C 155.89 669.09 175.281 667.055 189.054 674.564
C 191.172 675.719 193.237 677.129 194.977 678.807
C 204.605 688.098 204.208 701.11 204.269 713.506
C 204.32 724.01 204.408 734.512 204.423 745.017
C 204.431 750.553 203.642 757.469 205.623 762.725
C 206.811 765.879 209.277 768.262 212.871 767.575
C 215.223 767.125 215.83 765.262 217.702 764.218
C 218.106 766.613 216.675 769.053 215.241 770.87
C 211.366 775.779 203.505 778.098 197.432 777.775
C 190.224 777.391 183.474 773.931 180.828 766.847
C 179.896 764.351 179.974 761.761 179.461 759.201
C 174.832 766.116 170.491 773.162 162.174 776.114
C 148.076 781.118 130.048 774.402 126.227 759.079
C 125.407 755.789 125.108 752.473 125.469 749.096 Z
M 151.449 740.096
C 150.253 746.138 151.105 754.361 156.078 758.583
C 163.181 764.615 173.424 759.012 178.021 752.729
C 180.657 749.126 179.825 744.158 179.895 739.912
C 180.059 729.982 180.374 720.024 180.196 710.09
C 177.572 712.009 175.193 714.284 172.568 716.231
C 165.512 721.465 156.9 726.903 152.945 735.032
C 152.157 736.65 151.952 738.398 151.449 740.096 Z"
opacity="1" fill="rgb(5,79,47)" fill-rule="evenodd" />
<path d="
M 213.826 694.977
C 221.626 690.3 229.615 686.629 236.635 680.664
C 239.624 678.125 242.466 675.596 245.16 672.731
C 245.509 672.361 247.433 670.303 247.892 670.898
C 247.823 679.531 247.766 688.28 247.451 696.901
C 248.121 696.745 248.243 695.458 248.386 694.912
C 248.846 693.158 249.387 691.269 250.082 689.593
C 252.32 684.191 255.628 678.27 260.434 674.708
C 267.607 669.392 281.644 667.636 286.442 677.138
C 287.781 679.789 287.946 682.756 287.869 685.669
C 287.808 687.957 287.472 690.537 286.54 692.649
C 285.787 694.358 284.83 695.945 283.561 697.325
C 279.501 701.741 273.547 701.722 268.587 698.747
C 266.666 697.595 265.158 695.836 263.201 694.763
C 259.888 692.947 255.347 693.729 252.781 696.439
C 251.758 697.519 251.056 698.845 250.393 700.16
C 249.509 701.915 248.836 703.843 248.46 705.775
C 246.763 714.501 247.761 724.152 247.753 733.005
C 247.748 738.616 247.807 744.227 247.812 749.838
C 247.816 754.208 247.676 758.697 248.468 763.012
C 249.221 767.118 251.211 771.36 254.628 773.912
C 256.272 775.14 258.013 775.466 259.915 776.086
C 260.519 776.283 261.062 776.581 260.864 777.289
C 248.801 777.66 236.583 777.23 224.508 777.112
C 221.694 777.085 218.885 777.058 216.08 777.283
C 215.316 777.345 213.587 777.648 213.588 776.668
C 215.274 775.722 217.083 774.78 218.412 773.345
C 222.67 768.75 222.721 761.377 222.837 755.498
C 223.075 743.505 222.88 731.491 222.853 719.497
C 222.839 713.463 223.953 706.185 221.799 700.433
C 221.128 698.639 219.679 696.555 217.71 696.043
C 216.526 695.736 214.518 696.176 213.585 695.362
C 213.665 695.233 213.745 695.105 213.826 694.977 Z"
opacity="1" fill="rgb(4,77,47)" fill-rule="evenodd" />
<path d="
M 251.865 283.408
C 253.033 282.592 255.755 283.416 257.136 283.575
C 262.07 284.143 267.11 285.166 271.91 286.434
C 280.714 288.76 289.569 291.279 297.347 296.185
C 308.797 303.41 315.688 314.673 321.53 326.493
C 321.813 325.45 321.221 323.766 320.952 322.724
C 320.438 320.734 320.073 318.599 319.762 316.568
C 318.584 308.876 318.028 301.337 317.543 293.587
C 317.375 290.898 317.384 288.191 317.449 285.497
C 317.458 285.121 317.334 283.387 317.784 283.241
C 318.411 283.038 320.06 283.98 320.664 284.194
C 323.868 285.333 326.912 286.723 329.819 288.5
C 341.348 295.549 350.963 304.813 356.801 317.168
C 358.357 320.462 359.431 323.91 360.538 327.372
C 360.914 328.547 361.432 330.723 362.563 331.378
C 363.397 331.153 363.517 329.161 364.33 328.628
C 371.723 329.677 377.815 336.006 382.814 341.146
C 397.472 356.214 404.482 377.852 408.906 397.955
C 410.707 406.14 412.901 414.261 415.016 422.369
C 415.697 424.98 416.334 427.601 417.032 430.206
C 417.258 431.05 417.354 431.906 417.644 432.731
C 417.739 433 418.273 434.273 418.05 434.212
C 416.386 431.947 413.652 430.146 411.617 428.189
C 407.217 423.959 402.826 419.52 398.772 414.958
C 389.721 404.774 382.725 393.323 376.194 381.407
C 372.47 374.613 369.72 367.047 367.277 359.708
C 366.503 357.383 365.577 355.122 365.112 352.701
C 364.993 352.085 364.05 348.488 363.914 349.168
C 363.771 353.234 364.831 357.66 365.662 361.629
C 366.774 366.943 368.014 372.4 369.915 377.495
C 371.616 382.056 373.59 386.827 375.711 391.211
C 376.352 392.536 377.317 393.699 377.912 395.028
C 374.052 392.662 370.373 388.897 367.259 385.638
C 363.615 381.825 359.801 377.894 356.944 373.438
C 351.78 365.386 348.04 356.498 343.817 347.941
C 341.328 342.899 338.95 337.532 336.993 332.262
C 336.392 330.644 335.603 327.191 334.055 326.327
C 335.359 336.634 340.019 346.848 343.919 356.381
C 345.109 359.293 346.28 362.218 347.499 365.116
C 347.898 366.067 348.891 367.298 348.958 368.318
C 347.674 367.706 346.445 366.377 345.331 365.482
C 342.136 362.916 339.059 360.186 335.835 357.662
C 323.545 348.041 311.584 337.85 299.869 327.547
C 295.702 323.882 291.665 320.045 287.322 316.597
C 285.802 315.391 284.355 313.876 282.662 312.936
C 282.059 312.481 279.897 310.468 280.11 310.783
C 287.026 319.434 295.371 327.318 303.449 334.884
C 308.958 340.045 314.209 345.517 319.824 350.555
C 328.792 358.602 338.182 366.464 346.205 375.488
C 346.629 375.921 347.882 376.636 348.013 377.22
C 337.554 373.7 326.935 370.862 315.932 369.425
C 313.492 369.106 311.131 368.812 308.673 368.741
C 307.819 368.716 306.399 368.023 305.884 368.918
C 307.448 369.791 310.123 369.86 311.9 370.225
C 315.779 371.019 319.697 372.183 323.472 373.383
C 335.59 377.237 346.967 382.023 357.633 389.007
C 361.607 391.61 364.922 394.908 368.182 398.334
C 369.05 399.247 371.168 400.692 371.558 401.842
C 367.975 400.908 364.543 399.12 360.958 398.077
C 354.704 396.257 348.12 395.241 341.646 394.615
C 339.108 394.37 336.542 394.262 333.994 394.366
C 332.917 394.41 331.653 394.183 330.696 394.734
C 330.225 395.4 333.48 395.507 334.231 395.643
C 336.904 396.126 339.589 396.486 342.236 397.109
C 350.108 398.962 358.065 401.114 365.401 404.585
C 371.868 407.645 378.349 410.952 383.994 415.4
C 396.221 425.033 405.312 437.489 415.583 449.001
C 414.925 449.191 414.251 448.866 413.585 448.804
C 411.894 448.647 410.2 448.502 408.509 448.349
C 400.254 447.602 392.317 443.983 384.512 441.47
C 361.215 433.968 336.617 431.9 314.532 420.734
C 307.562 417.21 300.988 412.943 294.833 408.165
C 293.341 407.007 291.907 405.784 290.561 404.457
C 290.076 403.979 289.189 403.268 289.185 402.597
C 295.269 397.946 303.701 394.89 311.085 393.046
C 312.601 392.668 314.157 392.738 315.673 392.375
C 315.046 391.625 312.892 391.546 311.908 391.333
C 308.383 390.572 304.794 390.11 301.268 389.351
C 287.941 386.481 276.091 381.426 265.51 372.682
C 263.01 370.616 260.602 368.389 258.712 365.747
C 258.217 365.055 256.75 363.809 256.789 362.998
C 259.275 362.222 261.516 360.739 263.928 359.757
C 269.032 357.679 274.203 356.119 279.657 355.29
C 282.488 354.859 285.308 354.68 288.152 354.404
C 288.744 354.346 292.472 354.323 292.401 354.223
C 289.571 352.662 286.449 351.627 283.63 349.985
C 276.562 345.868 270.279 340.501 265.026 334.261
C 262.5 331.26 259.86 328.413 258.458 324.719
C 260.359 323.699 264.745 323.823 266.837 324.296
C 262.828 319.28 259.592 314.501 257.389 308.361
C 254.528 300.387 253.696 291.646 251.865 283.408 Z"
opacity="1" fill="rgb(87,126,49)" fill-rule="evenodd" />
<path d="
M 284.745 776.412
C 286.066 775.777 287.519 775.27 288.652 774.318
C 294.475 769.427 294.34 761.439 294.36 754.457
C 294.399 741.286 294.193 728.091 294.441 714.923
C 294.524 710.52 294.93 706.032 294.249 701.655
C 293.913 699.501 293.189 697.059 291.47 695.585
C 290.278 694.563 289.051 694.448 287.603 694.073
C 288.035 691.901 292.754 690.406 294.559 689.247
C 300.916 685.164 307.584 681.038 313 675.724
C 314.607 674.147 316.084 672.392 317.746 670.877
C 318.215 670.45 318.947 669.55 319.619 669.739
C 319.988 673.604 319.433 677.784 319.365 681.69
C 319.326 683.928 319.704 686.803 318.998 688.932
C 319.954 688.611 320.627 686.418 321.112 685.58
C 322.605 682.999 324.469 680.653 326.574 678.547
C 335.276 669.844 349.277 667.408 359.43 675.295
C 362.35 677.564 364.569 680.78 366.204 684.072
C 366.736 685.144 367.251 686.235 367.499 687.409
C 367.585 687.817 367.568 688.673 367.929 688.863
C 368.627 688.28 368.99 687.219 369.48 686.455
C 370.27 685.223 371.283 684.082 372.19 682.934
C 375.176 679.154 379.084 675.409 383.412 673.211
C 392.54 668.577 404.926 670.076 412.257 677.412
C 415.075 680.232 417.051 683.988 418.446 687.675
C 421.377 695.423 420.793 704.384 420.845 712.51
C 420.932 725.88 420.838 739.253 420.959 752.622
C 421.012 758.443 420.707 765.459 423.998 770.543
C 425.609 773.031 427.72 774.564 430.413 775.633
C 430.957 775.849 432.576 776.346 432.296 777.156
C 422.204 777.006 412.095 777.189 401.999 777.216
C 396.986 777.23 391.47 777.833 386.541 776.946
C 387.167 776.047 388.953 775.616 389.933 774.902
C 391.911 773.461 393.462 771.345 394.39 769.1
C 395.331 766.825 395.297 764.396 395.437 761.986
C 395.697 757.5 395.61 752.995 395.596 748.499
C 395.553 735.025 396.056 721.444 395.457 707.989
C 395.129 700.614 395.514 690.417 387.042 687.287
C 385.741 686.806 384.398 686.492 383.011 686.427
C 381.405 686.351 379.58 686.589 378.058 687.117
C 374.824 688.239 371.191 691.178 370.044 694.494
C 368.279 699.596 369.478 706.211 369.555 711.5
C 369.749 724.844 369.533 738.196 369.58 751.528
C 369.603 757.761 368.759 765.288 372.162 770.864
C 373.135 772.458 374.479 774.162 376.18 775.028
C 377.411 775.655 378.913 775.566 380.09 776.255
C 380.987 777.751 378.491 777.184 377.505 777.176
C 374.67 777.151 371.835 777.224 369 777.246
C 361.218 777.305 353.432 777.232 345.65 777.141
C 343.229 777.113 340.814 777.068 338.395 777.166
C 337.517 777.201 335.933 777.415 336.223 776.38
C 337.424 775.845 338.61 775.399 339.647 774.56
C 344.897 770.312 344.804 763.158 344.816 757.001
C 344.84 745.002 344.851 733.001 344.788 721.002
C 344.756 715.022 345.266 708.709 344.558 702.768
C 343.805 696.445 343.044 688.784 335.486 687.068
C 334.169 686.769 332.806 686.64 331.456 686.697
C 324.413 686.993 319.662 693.227 319.323 699.895
C 318.706 712.043 319.258 724.339 319.235 736.502
C 319.217 745.433 318.437 754.805 319.484 763.682
C 319.961 767.724 321.306 771.547 324.499 774.259
C 325.705 775.283 327.546 775.865 329.063 776.27
C 329.579 776.407 330.276 776.616 329.839 777.258
C 319.427 777.578 308.927 777.104 298.504 777.086
C 295.396 777.08 292.287 777.057 289.179 777.119
C 287.644 777.15 286.016 777.49 284.538 776.98
C 284.607 776.791 284.676 776.602 284.745 776.412 Z"
opacity="1" fill="rgb(5,78,48)" fill-rule="evenodd" />
<path d="
M 509.411 465.336
C 509.079 466.793 509.315 468.499 509.325 469.999
C 509.343 472.833 509.311 475.668 509.3 478.502
C 509.264 487.67 509.244 496.837 509.282 506.004
C 509.4 534.331 509.481 562.677 509.291 591.003
C 509.219 601.669 509.281 612.336 509.237 623.002
C 509.226 625.673 509.232 628.339 509.326 631.008
C 509.355 631.826 509.876 633.431 509.442 634.097
C 504.454 629.193 498.855 624.854 493.99 619.782
C 487.528 613.043 481.754 605.134 476.478 597.442
C 469.298 586.971 463.288 575.76 456.202 565.242
C 448.493 553.798 439.257 543.366 428.428 534.802
C 408.587 519.112 384.926 511.132 360.511 505.732
C 350.501 503.518 340.125 501.972 330.359 498.84
C 327.342 497.873 322.881 497.362 320.411 495.295
C 318.729 493.886 317.911 491.558 317.093 489.599
C 315.586 485.992 314.174 482.393 312.977 478.671
C 308.04 463.309 304.324 447.257 304.159 431.051
C 306.721 431.439 309.202 432.731 311.582 433.718
C 314.908 435.098 318.275 436.35 321.656 437.583
C 330.329 440.745 339.324 443.121 348.211 445.597
C 378.375 454.005 409.879 458.843 441.044 461.586
C 457.306 463.017 473.555 464.095 489.871 464.7
C 494.528 464.873 499.217 465.012 503.875 465.053
C 505.364 465.066 508.13 464.562 509.411 465.336 Z"
opacity="1" fill="rgb(76,122,59)" fill-rule="evenodd" />
<path d="
M 326.487 509.475
C 347.266 513.247 368.915 516.112 388.817 523.463
C 403.84 529.013 418.162 537.301 430.125 547.998
C 447.93 563.919 459.131 585.138 472.63 604.475
C 477.665 611.687 483.143 618.413 489.311 624.694
C 491.363 626.782 493.517 628.779 495.617 630.82
C 496.147 631.335 497.748 632.168 497.976 632.787
C 483.337 632.222 468.194 627.941 454.472 623.021
C 427.853 613.475 402.914 598.754 381.378 580.447
C 373.341 573.615 366.342 565.681 359.14 558.02
C 351.038 549.401 344.078 539.975 337.553 530.123
C 333.351 523.778 328.821 516.763 326.487 509.475 Z"
opacity="1" fill="rgb(76,122,59)" fill-rule="evenodd" />
<path d="
M 367.76 318.95
C 372.472 311.459 377.201 304.054 382.745 297.126
C 390.015 288.042 398.658 280.004 407.67 272.696
C 440.137 246.37 484.582 234.773 525.866 238.679
C 537.965 239.823 550.074 242.072 561.554 246.136
C 565.9 247.674 570.385 248.944 574.621 250.77
C 586.651 255.956 598.159 262.735 608.557 270.708
C 611.806 273.199 614.871 275.917 618.005 278.546
C 618.972 279.357 621.174 280.623 621.496 281.9
C 620.883 284.24 619.401 286.408 618.578 288.709
C 617.154 292.689 616.459 296.86 615.971 301.046
C 615.684 303.504 615.533 306.029 615.417 308.492
C 615.379 309.276 615.421 310.09 615.542 310.863
C 615.564 311.003 615.911 312.29 615.662 312.248
C 610.895 307.648 606.623 302.571 601.864 297.958
C 595.167 291.464 587.166 285.105 579.085 280.417
C 544.015 260.068 502.048 256.246 463.795 269.474
C 453.531 273.023 443.481 277.43 434.4 283.467
C 422.439 291.418 410.431 300.642 401.483 312
C 398.203 316.164 394.64 320.402 391.831 324.896
C 389.991 327.84 388.26 331.872 385.882 334.368
C 385.376 334.522 384.805 333.829 384.463 333.497
C 383.468 332.533 382.563 331.482 381.552 330.53
C 377.21 326.442 372.777 322.516 367.553 319.576
C 367.622 319.367 367.691 319.159 367.76 318.95 Z"
opacity="1" fill="rgb(5,76,46)" fill-rule="evenodd" />
<path d="
M 521.318 368.765
C 522.457 369.466 523.698 368.777 524.897 368.668
C 525.953 368.571 526.986 368.748 528.035 368.811
C 528.872 368.849 529.706 368.78 530.541 368.83
C 535.22 369.657 539.586 372.471 541.795 376.734
C 542.751 378.579 542.825 380.7 544.031 382.418
C 543.214 382.558 544.106 385.174 544.359 385.93
C 545.676 389.863 547.841 393.827 548.368 397.972
C 547.443 396.436 545.779 395.178 544.438 394.017
C 541.056 391.088 537.482 388.669 533.533 386.556
C 523.471 381.172 513.02 377.801 502.084 374.721
C 496.93 373.27 491.84 371.449 486.509 370.743
C 485.723 370.249 485.887 369.43 485.972 368.625
C 486.453 368.145 488.128 367.53 487.672 366.702
C 468.91 362.591 449.1 369.66 435.855 383.32
C 431.499 387.812 427.798 392.773 424.942 398.35
C 423.764 400.651 422.773 402.95 421.807 405.341
C 421.654 405.721 421.158 407.412 420.663 407.328
C 418.437 401.637 416.082 395.821 414.353 389.955
C 412.226 382.739 410.466 375.089 407.22 368.272
C 405.513 364.687 403.626 361.194 401.727 357.709
C 401.073 356.508 399.846 354.883 400.329 353.445
C 401.139 351.031 404.215 348.867 406.108 347.328
C 412.471 342.157 420.256 338.537 427.973 335.893
C 428.094 334.608 426.173 333.748 426.462 332.119
C 427.243 327.729 434.119 327.225 437.775 327.318
C 438.34 326.712 438.321 325.427 438.497 324.63
C 439.02 322.261 439.416 319.869 440.026 317.517
C 441.75 310.869 445.574 302.878 451.302 298.793
C 456.223 295.284 461.39 297.888 464.446 302.405
C 465.42 303.846 466.701 306.426 466.114 308.201
C 465.57 309.342 463.406 310.785 465.212 311.583
C 465.414 311.993 464.99 312.48 464.583 312.503
C 463.548 311.679 462.975 312.475 462.177 313.251
C 460.876 314.687 459.106 315.595 457.844 317.112
C 455.082 320.43 453.764 325.862 455.433 330.003
C 458.947 329.422 462.777 330.046 466.314 330.206
C 482.853 330.952 498.406 337.58 508.4 351.262
C 512.647 357.076 513.547 364.143 516.564 370.46
C 518.008 371.033 520.077 369.34 521.318 368.765 Z"
opacity="1" fill="rgb(5,76,46)" fill-rule="evenodd" />
<path d="
M 486.509 370.743
C 491.84 371.449 496.93 373.27 502.084 374.721
C 513.02 377.801 523.471 381.172 533.533 386.556
C 537.482 388.669 541.056 391.088 544.438 394.017
C 545.779 395.178 547.443 396.436 548.368 397.972
C 547.841 393.827 545.676 389.863 544.359 385.93
C 544.106 385.174 543.214 382.558 544.031 382.418
C 546.232 384.03 549.185 384.437 551.648 385.625
C 556.57 388.001 561.235 391.179 565.118 395.043
C 576.166 406.033 580.381 422.223 578.838 437.367
C 578.288 442.761 577.345 448.893 574.682 453.681
C 573.215 454.394 570.235 453.984 568.553 454.083
C 563.771 454.366 558.898 454.458 554.138 454.959
C 547.429 455.665 540.51 455.642 533.764 455.789
C 521.665 456.052 509.602 456.054 497.499 455.741
C 491.523 455.587 485.297 455.71 479.368 454.99
C 477.625 454.779 474.569 455.358 473.081 454.443
C 468.703 440.134 468.957 424.858 474.775 410.972
C 476.616 406.577 479.579 402.271 482.824 398.797
C 483.782 397.771 484.818 396.783 485.878 395.864
C 486.056 395.71 486.789 395.184 486.771 394.899
C 486.739 394.4 485.241 394.981 485.058 395.039
C 483.61 395.495 482.256 396.183 480.963 396.972
C 475.769 400.144 470.917 404.07 467.076 408.812
C 456.602 421.739 455.903 438.25 459.184 453.764
C 452.259 453.118 445.268 452.957 438.372 451.982
C 435.927 451.637 432.666 452.072 430.392 451.077
C 429.543 449.672 429.236 447.784 428.759 446.218
C 427.613 442.459 426.757 438.586 426.172 434.699
C 422.333 409.169 437.237 383.368 461.445 374.248
C 465.846 372.59 470.544 371.678 475.214 371.212
C 478.891 370.845 482.824 370.322 486.509 370.743 Z"
opacity="1" fill="rgb(150,159,58)" fill-rule="evenodd" />
<path d="
M 457.329 694.552
C 459.989 692.5 463.198 691.424 466.081 689.733
C 471.162 686.754 475.91 683.207 480.7 679.79
C 483.403 677.862 485.828 675.412 488.252 673.151
C 489.337 672.14 490.368 670.861 491.704 670.188
C 492.085 671.985 491.671 674.098 491.643 675.935
C 491.571 680.8 491.226 685.67 491.096 690.532
C 491.498 690.61 491.703 689.871 491.819 689.582
C 492.357 688.237 492.899 686.934 493.667 685.699
C 495.806 682.258 498.238 679.17 501.391 676.587
C 509.519 669.928 521.935 668.34 530.865 674.598
C 535.64 677.945 538.957 683.911 540.036 689.551
C 540.919 689.238 541.269 687.598 541.65 686.806
C 542.547 684.942 543.862 683.253 545.19 681.681
C 549.968 676.026 555.91 671.485 563.458 670.585
C 577.084 668.962 588.731 678.11 591.232 691.392
C 592.638 698.86 592.329 706.442 592.31 714
C 592.289 722.666 592.359 731.332 592.327 739.998
C 592.301 747.035 592.07 754.176 592.821 761.18
C 593.307 765.713 594.767 770.397 598.183 773.591
C 599.322 774.656 600.586 775.191 602.001 775.78
C 602.699 776.07 603.711 776.267 603.984 777.058
C 603.646 777.479 602.506 777.219 602.006 777.197
C 600.338 777.123 598.668 777.126 596.999 777.13
C 590.168 777.147 583.336 777.065 576.504 777.082
C 571.903 777.093 567.3 777.085 562.7 777.116
C 561.662 777.124 558.407 777.687 558.743 776.338
C 560.204 775.511 561.703 774.97 562.907 773.747
C 568.173 768.395 567.482 760.425 567.449 753.491
C 567.385 740.001 567.221 726.492 567.42 713.003
C 567.518 706.352 568.277 698.053 564.515 692.196
C 559.214 683.943 546.163 685.75 542.46 694.556
C 541.383 697.116 541.623 700.461 541.651 703.175
C 541.697 707.616 541.608 712.058 541.616 716.5
C 541.63 724.999 541.685 733.501 541.631 742
C 541.603 746.503 541.712 751.004 541.733 755.506
C 541.754 759.972 541.646 764.436 543.128 768.711
C 543.965 771.125 545.583 773.654 547.854 774.96
C 548.778 775.492 551.625 775.725 551.411 777.188
C 547.71 777.611 543.733 777.183 540.009 777.112
C 534.342 777.004 528.669 777.048 523.002 777.068
C 519.174 777.082 515.327 776.941 511.503 777.117
C 510.8 777.149 507.824 777.583 508.033 776.657
C 509.595 775.766 511.394 775.016 512.648 773.696
C 517.834 768.241 517.13 759.749 517.122 752.795
C 517.106 739.602 517.223 726.407 517.306 713.214
C 517.348 706.535 517.916 698.171 514.097 692.348
C 508.833 684.323 497.566 686.731 493.445 694.346
C 489.747 701.181 491.387 710.624 491.371 718.152
C 491.353 726.939 491.426 735.725 491.416 744.511
C 491.407 752.516 490.623 761.591 493.574 769.189
C 494.448 771.439 496.223 773.676 498.365 774.844
C 499.27 775.337 501.94 775.71 501.94 777.01
C 501.661 777.309 499.92 776.914 499.53 776.905
C 497.506 776.858 495.46 777.043 493.437 777.111
C 484.65 777.409 475.794 777.21 467.001 777.193
C 464.523 777.188 462.054 777.146 459.582 777.3
C 458.694 777.355 457.289 777.621 456.947 776.645
C 458.572 775.805 460.312 775.103 461.677 773.858
C 467.006 768.997 466.099 761.557 466.491 755.084
C 467.211 743.186 466.54 731.079 466.566 719.157
C 466.579 713.13 467.468 705.653 465.251 699.955
C 464.544 698.14 463.19 696.138 461.209 695.556
C 460.042 695.213 458.127 695.644 457.16 694.928
C 457.217 694.803 457.273 694.677 457.329 694.552 Z"
opacity="1" fill="rgb(5,77,47)" fill-rule="evenodd" />
<path d="
M 509.411 465.336
C 511.873 464.47 515.408 465.115 518.011 465.128
C 523.461 465.155 528.897 464.989 534.343 464.868
C 552.278 464.469 570.509 463.794 588.329 461.65
C 588.05 465.995 588.804 470.649 588.874 475.032
C 589 482.98 588.526 490.83 587.545 498.715
C 585.984 511.251 582.875 523.502 579.069 535.516
C 574.177 550.958 567.983 565.796 559.636 579.729
C 555.32 586.932 550.188 593.539 545.241 600.302
C 537.912 610.321 529.078 620.204 519.243 627.844
C 516.89 629.671 514.491 631.331 512.029 633
C 511.455 633.389 510.138 634.631 509.442 634.097
C 509.876 633.431 509.355 631.826 509.326 631.008
C 509.232 628.339 509.226 625.673 509.237 623.002
C 509.281 612.336 509.219 601.669 509.291 591.003
C 509.481 562.677 509.4 534.331 509.282 506.004
C 509.244 496.837 509.264 487.67 509.3 478.502
C 509.311 475.668 509.343 472.833 509.325 469.999
C 509.315 468.499 509.079 466.793 509.411 465.336 Z"
opacity="1" fill="rgb(6,74,45)" fill-rule="evenodd" />
<path d="
M 565.12 350.032
C 565.476 350.037 565.382 349.946 565.498 350.131
C 558.175 350.636 549.635 352.363 543.787 357.038
C 541.095 359.19 538.994 362.257 537.246 365.198
C 536.59 365.519 535.176 364.562 534.466 364.378
C 532.106 363.764 529.695 363.187 527.248 363.111
C 525.582 363.059 523.804 363.175 522.161 363.472
C 521.705 363.555 519.875 364.333 519.855 364.053
C 520.411 362.414 520.199 360.794 520.979 359.178
C 525.087 350.659 533.432 343.324 543.037 342.036
C 546.832 341.526 551.122 342.204 554.759 343.337
C 559.063 344.678 561.243 348.131 565.12 350.032 Z"
opacity="1" fill="rgb(122,147,48)" fill-rule="evenodd" />
<path d="
M 529.555 367.892
C 529.142 368.663 528.657 368.376 528.035 368.811
C 526.986 368.748 525.953 368.571 524.897 368.668
C 523.698 368.777 522.457 369.466 521.318 368.765
C 522.875 367.239 527.952 365.791 529.555 367.892 Z"
opacity="1" fill="rgb(73,130,109)" fill-rule="evenodd" />
<path d="
M 524.85 632.573
C 529.511 629.659 533.405 625.539 537.252 621.653
C 543.29 615.555 548.903 609.322 554.068 602.47
C 558.718 596.301 563.388 590.197 567.481 583.626
C 579.425 564.445 588.531 542.714 593.32 520.6
C 596.397 506.393 598.974 491.215 598.059 476.626
C 597.815 472.744 597.654 468.859 597.318 464.983
C 597.243 464.115 596.437 461.592 597.191 460.992
C 597.84 460.477 599.533 460.641 600.329 460.54
C 602.948 460.207 605.573 459.948 608.198 459.666
C 618.027 458.609 627.862 457.451 637.641 455.991
C 644.203 455.012 650.66 453.562 657.156 452.233
C 680.525 447.455 703.745 441.539 725.706 432.055
C 725.336 436.163 725.47 440.335 725.069 444.457
C 723.851 456.994 720.531 469.855 716.623 481.812
C 710.104 501.762 700.175 520.269 688.231 537.442
C 662.93 573.824 627.402 603.246 585.949 619.303
C 571.997 624.708 557.845 628.662 543.038 630.966
C 536.991 631.907 530.815 632.875 524.699 632.994
C 524.75 632.854 524.8 632.713 524.85 632.573 Z"
opacity="1" fill="rgb(6,74,46)" fill-rule="evenodd" />
<path d="
M 529.555 367.892
C 529.862 368.249 530.165 368.548 530.541 368.83
C 529.706 368.78 528.872 368.849 528.035 368.811
C 528.657 368.376 529.142 368.663 529.555 367.892 Z"
opacity="1" fill="rgb(159,190,179)" fill-rule="evenodd" />
<path d="
M 540.903 365.974
C 543.982 361.542 548.903 358.6 553.86 356.758
C 565.351 352.487 578.757 354.168 588.716 361.454
C 592.227 364.022 595.733 367.128 598.201 370.74
C 599.313 372.367 599.765 374.586 600.979 376.064
C 601.327 374.664 600.602 372.765 600.214 371.424
C 599 367.223 596.713 363.111 593.535 360.076
C 592.048 358.656 589.192 357.283 588.273 355.472
C 597.521 347.824 612.25 349.102 621.521 356.071
C 628.003 360.943 632.151 367.821 634.723 375.417
C 636.479 380.605 636.878 386.023 636.876 391.463
C 636.868 408.723 629.413 425.769 618.698 439.03
C 615.594 442.872 611.642 448.119 607.129 450.345
C 605.906 450.948 604.429 450.823 603.107 450.994
C 599.94 451.404 596.791 451.922 593.606 452.16
C 591.667 452.305 589.729 452.346 587.803 452.614
C 587.208 452.697 585.817 453.039 585.293 452.717
C 587.411 448.656 587.952 443.414 588.464 438.923
C 590.574 420.434 583.075 400.422 568.938 388.29
C 565.446 385.293 561.256 382.928 557.038 381.111
C 554.34 379.949 550.647 378.89 548.407 376.987
C 547.103 374.836 546.207 372.951 544.429 371.074
C 543.25 369.829 541.062 368.195 540.541 366.575
C 540.662 366.375 540.782 366.175 540.903 365.974 Z"
opacity="1" fill="rgb(115,140,47)" fill-rule="evenodd" />
<path d="
M 565.498 350.131
C 565.382 349.946 565.476 350.037 565.12 350.032
C 564.924 348.932 564.016 348.208 563.343 347.367
C 562.181 345.918 561.113 344.247 560.074 342.71
C 563.108 343.285 566.022 344.005 568.981 344.881
C 569.901 342.917 569.651 339.842 569.345 337.778
C 568.587 332.663 566.437 327.364 561.961 324.399
C 558.976 322.422 555.647 321.767 552.349 320.556
C 551.766 319.04 552.868 317.107 553.799 315.947
C 556.924 312.056 561.938 312.252 566.309 313.666
C 574.197 316.219 578.779 325.572 580.35 333.137
C 580.815 333.926 581.168 332.518 581.444 332.051
C 582.371 330.481 583.691 329.081 584.952 327.775
C 588.439 324.166 592.629 322.08 597.677 321.87
C 601.024 321.73 604.659 322.646 607.097 325.048
C 609.132 327.053 609.894 330.693 607.821 333.012
C 606.841 334.109 604.595 334.89 603.181 335.257
C 602.449 333.83 603.224 332.357 601.927 331.108
C 599.198 328.481 595.382 329.137 592.59 331.309
C 588.23 334.701 586.299 339.433 585.211 344.677
C 585.692 345.105 588.606 344.393 589.468 344.443
C 592.402 344.615 595.553 345.402 597.979 347.128
C 597.423 347.912 594.581 348.152 593.602 348.519
C 590.285 349.765 587.522 351.436 584.743 353.615
C 582.907 353.951 580.211 352.632 578.421 352.185
C 574.43 351.188 569.619 349.99 565.498 350.131 Z"
opacity="1" fill="rgb(6,82,48)" fill-rule="evenodd" />
<path d="
M 601.465 748.589
C 602.206 745.535 602.944 742.685 604.447 739.887
C 608.741 731.896 617.306 726.343 625.431 722.759
C 634.201 718.891 645.543 715.377 651.506 707.406
C 656.112 701.249 656.101 690.693 653.242 683.796
C 651.927 680.624 649.712 677.631 646.523 676.162
C 644.269 675.123 641.805 674.745 639.338 674.766
C 637.366 674.783 635.363 675.021 633.545 675.83
C 632.273 676.396 631.069 677.151 629.997 678.038
C 626.888 680.609 625.799 685.054 627.344 688.859
C 629.311 693.701 633.213 697.596 630.837 703.21
C 626.987 712.306 613.437 713.186 608.948 704.113
C 603.908 693.927 610.741 683.402 619.079 677.743
C 632.64 668.538 654.895 667.138 668.096 677.981
C 677.264 685.512 677.917 697.719 677.805 708.716
C 677.675 721.585 677.765 734.457 677.796 747.327
C 677.808 752.23 677.197 758.602 678.96 763.261
C 679.933 765.832 681.577 768.122 684.492 768.471
C 686.482 768.71 688.294 768.09 690.171 767.565
C 690.403 770.106 687.419 772.226 685.659 773.597
C 679.704 778.235 669.552 778.898 662.81 775.888
C 658.823 774.108 656.306 770.789 654.805 766.761
C 654.373 765.603 653.948 764.26 653.889 763.024
C 653.861 762.445 654.181 761.566 653.972 761.031
C 653.869 760.768 653.643 760.884 653.485 761.063
C 649.594 768.34 643.365 774.701 635.185 776.927
C 621.368 780.686 604.393 773.742 601.719 758.564
C 601.142 755.288 600.949 751.886 601.465 748.589 Z
M 626.414 742.09
C 625.513 747.834 626.562 754.826 631.146 758.832
C 638.436 765.204 649.269 759.794 653.324 752.557
C 654.439 750.567 653.859 747.695 653.965 745.496
C 654.279 738.992 654.121 732.425 654.073 725.91
C 654.05 722.781 653.868 719.637 653.789 716.505
C 653.769 715.708 653.978 711.682 653.608 712.012
C 646.245 719.671 635.933 723.867 629.96 733.007
C 628.097 735.858 627.246 738.845 626.414 742.09 Z"
opacity="1" fill="rgb(4,78,47)" fill-rule="evenodd" />
<path d="
M 623.329 448.555
C 626.359 447.223 628.745 444.581 631.153 442.367
C 635.617 438.26 639.912 433.931 644.247 429.687
C 656.82 417.377 670.039 405.766 682.989 393.868
C 687.61 389.623 692.438 385.559 697.291 381.581
C 698.441 380.638 699.602 379.686 700.718 378.703
C 700.788 378.641 701.588 377.987 701.55 377.813
C 701.505 377.608 700.262 378.239 700.221 378.261
C 698.526 379.183 696.932 380.308 695.284 381.311
C 691.114 383.85 687.007 386.532 682.969 389.276
C 669.774 398.241 656.904 407.484 645.342 418.553
C 641.41 422.317 637.321 425.904 633.525 429.814
C 632.012 431.373 630.371 432.793 628.798 434.288
C 628.661 434.418 627.422 435.668 627.31 435.537
C 627.175 435.379 627.587 435.226 627.706 435.057
C 627.97 434.682 628.187 434.23 628.365 433.81
C 629.121 432.021 630.327 430.445 631.236 428.725
C 635.111 421.4 638.411 413.396 641.269 405.619
C 645.435 394.286 651.057 383.546 658.506 374.061
C 662.112 369.47 666.057 364.998 670.881 361.633
C 676.169 357.945 682.117 354.867 688.481 353.536
C 701.595 350.793 716.416 354.3 724.953 365.153
C 728.177 369.253 730.336 374.25 731.461 379.307
C 732.41 383.573 732.51 388.056 731.851 392.371
C 731.31 395.915 730.173 399.163 728.755 402.439
C 717.787 427.78 688.786 434.631 664.592 440.86
C 654.286 443.513 643.801 445.616 633.296 447.291
C 630.689 447.706 628.123 448.12 625.541 448.641
C 625.048 448.741 623.444 449.2 623.329 448.555 Z"
opacity="1" fill="rgb(6,75,46)" fill-rule="evenodd" />
<path d="
M 624.476 306.107
C 625.861 295.297 627.803 284.954 632.183 274.898
C 635.476 267.334 639.4 259.962 644.523 253.464
C 654.111 241.301 665.777 230.242 679.43 222.684
C 705.185 208.425 734.76 203.653 763.693 200.788
C 763.664 202.157 763.061 203.602 762.863 204.973
C 762.012 210.864 760.909 216.739 760.226 222.652
C 758.034 241.638 754.937 261.18 747.718 278.995
C 741.002 295.567 730.274 311.463 717.096 323.573
C 709.63 330.434 700.954 336.323 691.826 340.735
C 686.271 343.42 680.441 345.451 674.972 348.325
C 666.08 353 657.879 357.746 651.069 365.28
C 649.293 367.245 647.55 369.205 645.96 371.33
C 645.593 371.82 644.636 373.562 644.06 373.465
C 643.779 371.39 642.937 369.39 642.896 367.28
C 642.838 364.288 643.702 361.103 644.336 358.196
C 645.593 352.435 647.111 346.862 649.033 341.287
C 656.392 319.947 668.698 300.539 683.333 283.436
C 690.02 275.621 697.128 267.635 704.987 260.974
C 707.624 258.739 710.144 256.358 712.833 254.186
C 713.834 253.378 714.818 252.549 715.812 251.732
C 716.008 251.572 717.245 250.615 716.204 250.686
C 715.1 250.762 713.622 252.111 712.692 252.677
C 709.164 254.825 705.867 257.217 702.55 259.678
C 689.98 269.004 678.337 279.34 668.145 291.258
C 664.568 295.44 661.262 299.685 658.046 304.152
C 657.299 305.189 656.429 306.248 655.866 307.4
C 655.697 307.747 655.469 308.388 655.019 308.402
C 655.564 305.529 654.691 301.947 654.495 298.996
C 654.19 294.411 654.233 289.807 654.345 285.216
C 654.414 282.415 654.759 279.663 654.898 276.872
C 654.937 276.069 655.185 272.221 654.62 273.792
C 653.248 276.925 652.751 280.996 652.15 284.413
C 651.025 290.807 649.873 297.183 649.369 303.666
C 649.018 308.183 649.325 312.966 648.607 317.427
C 648.204 319.932 646.624 322.253 645.398 324.424
C 643.944 326.999 642.592 329.585 641.379 332.285
C 639.354 336.792 637.418 341.331 635.903 346.04
C 634.855 349.297 634.204 352.88 632.867 356.011
C 629.123 352.111 628.152 346.194 627.073 341.133
C 624.607 329.569 623.47 317.939 624.476 306.107 Z"
opacity="1" fill="rgb(6,76,46)" fill-rule="evenodd" />
<path d="
M 687.222 696.098
C 687.907 694.911 689.516 694.443 690.705 693.826
C 693.579 692.333 696.435 690.737 699.13 688.94
C 707.268 683.511 714.181 677.289 721 670.3
C 721.398 670.177 721.243 671.879 721.231 672.145
C 721.131 674.24 720.987 676.337 720.926 678.433
C 720.777 683.605 721.354 689.27 720.48 694.369
C 721.059 694.418 721.575 691.967 721.768 691.435
C 722.876 688.391 724.226 685.647 725.973 682.913
C 727.702 680.206 729.673 677.31 732.156 675.236
C 737.997 670.359 746.299 668.72 753.143 672.561
C 762.755 677.956 761.424 694.644 751.932 699.563
C 746.918 702.161 742.105 699.425 738.062 696.394
C 734.558 693.767 731.075 691.169 726.821 694.139
C 725.965 694.738 725.189 695.455 724.526 696.261
C 723.565 697.43 722.923 698.79 722.413 700.206
C 719.725 707.66 720.914 716.237 720.89 724.012
C 720.863 732.296 720.876 740.581 720.881 748.865
C 720.884 753.981 720.532 759.311 721.62 764.347
C 722.492 768.385 724.459 771.995 727.809 774.513
C 729.015 775.42 730.552 775.568 731.965 775.967
C 732.581 776.141 733.432 776.44 733.292 777.235
C 721.535 777.11 709.764 777.03 698.003 777.096
C 695.201 777.112 692.4 777.089 689.6 777.214
C 688.626 777.258 687.331 777.428 687.117 776.385
C 688.556 775.876 690.071 775.241 691.301 774.317
C 696.284 770.571 696.516 763.862 696.674 758.2
C 697.089 743.351 696.756 728.461 696.724 713.608
C 696.715 709.461 697.242 704.73 695.739 700.774
C 695.038 698.931 693.288 696.714 691.232 696.31
C 689.998 696.067 688.563 696.378 687.334 696.578
C 687.297 696.418 687.259 696.258 687.222 696.098 Z"
opacity="1" fill="rgb(4,77,47)" fill-rule="evenodd" />
<path d="
M 753.177 626.107
C 754.351 624.779 756.187 624.378 757.796 623.778
C 760.185 622.887 762.532 621.901 764.824 620.785
C 773.198 616.705 780.91 612.099 788.519 606.739
C 789.434 610.002 788.62 614.584 788.632 618
C 788.662 626.135 788.617 634.282 788.472 642.409
C 788.148 660.596 788.252 678.821 788.359 697.009
C 788.409 705.58 787.637 714.421 788.437 722.955
C 792.033 720.78 794.908 716.32 797.83 713.321
C 804.162 706.821 810.662 699.667 814.447 691.324
C 816.461 686.884 817.528 681.611 814.719 677.23
C 813.072 674.662 810.689 673.877 808.319 672.268
C 810.911 670.943 815.603 671.743 818.504 671.733
C 825.005 671.711 831.505 671.708 838.007 671.735
C 840.96 671.747 844.852 671.188 847.645 672.233
C 847.995 672.902 847.34 673.226 846.767 673.435
C 845.33 673.961 843.867 674.637 842.516 675.361
C 839.102 677.193 835.819 679.78 833.011 682.439
C 827.694 687.474 822.295 692.458 817.139 697.656
C 813.035 701.793 809.226 706.291 805.131 710.44
C 806.501 712.611 808.857 714.345 810.457 716.391
C 814.189 721.164 817.645 726.248 820.94 731.331
C 836.642 755.552 850.526 783.437 878.796 794.912
C 882.948 796.598 887.299 797.735 891.719 798.44
C 897.349 799.339 903.679 799.15 909.244 797.935
C 912.292 797.269 915.238 795.901 918.268 795.34
C 918.326 796.575 915.961 798.312 915.121 799.097
C 911.477 802.503 906.999 805.231 902.467 807.28
C 884.28 815.502 862.446 813.5 845.575 802.701
C 827.113 790.884 814.987 772.748 804.459 753.973
C 800.921 747.663 797.082 741.494 793.805 735.044
C 792.776 733.018 791.047 728.384 788.824 727.598
C 788.334 735.513 788.523 743.578 788.676 751.505
C 788.77 756.398 788.437 761.47 789.968 766.188
C 791.077 769.607 793.346 772.283 796.282 774.291
C 797.443 775.085 798.886 775.662 800.171 776.236
C 800.603 776.428 801.541 776.554 801.3 777.23
C 797.503 777.661 793.335 777.248 789.508 777.184
C 783.675 777.087 777.834 777.182 772 777.195
C 768.002 777.204 764.003 777.195 760.005 777.179
C 757.849 777.171 755.621 777.441 753.519 776.946
C 754.108 776.15 755.886 775.818 756.829 775.257
C 759.072 773.921 760.946 772.116 762.06 769.73
C 763.738 766.135 763.804 762.372 763.962 758.488
C 764.253 751.341 764.11 744.153 764.094 736.998
C 764.042 713.528 764.04 690.054 763.955 666.591
C 763.924 657.927 764.786 648.986 763.985 640.354
C 763.626 636.482 763.935 632.596 761.231 629.408
C 758.933 626.697 755.8 627.651 753.177 626.107 Z"
opacity="1" fill="rgb(6,78,48)" fill-rule="evenodd" />
<path d="
M 840.978 720.112
C 841.599 714.837 841.976 709.814 843.619 704.703
C 847.991 691.1 858.274 678.453 871.929 673.342
C 888.284 667.22 911.816 669.56 919.894 687.439
C 921.181 690.285 922.016 693.366 922.104 696.505
C 922.286 702.963 918.11 707.895 913.245 711.552
C 904.464 718.153 893.246 721.611 882.545 723.427
C 878.442 724.123 874.329 724.532 870.157 724.376
C 869.17 724.339 866.461 724.44 865.717 723.672
C 864.379 722.289 867.687 722.347 868.24 722.302
C 872.326 721.964 876.232 721.558 880.064 719.963
C 889.725 715.943 896.922 708.94 899.003 698.353
C 900.295 691.782 900.115 683.434 895.627 678.023
C 888.259 669.138 875.114 674.544 869.834 682.802
C 862.469 694.322 860.485 710.004 864.142 723.122
C 864.537 724.539 864.52 726.044 864.946 727.464
C 866.383 732.251 868.814 737.091 871.868 741.046
C 883.178 755.696 904.651 758.35 919.14 746.937
C 921.548 745.041 923.73 742.688 925.332 740.07
C 926.397 738.33 926.938 736.34 927.924 734.563
C 928.573 738.722 927.691 743.099 926.773 747.171
C 925.922 750.948 924.723 754.716 922.782 758.086
C 920.163 762.633 916.79 766.874 912.711 770.194
C 902.58 778.44 888.191 779.177 876.094 775.705
C 852.306 768.877 839.321 743.713 840.978 720.112 Z"
opacity="1" fill="rgb(4,77,46)" fill-rule="evenodd" />
<path d="
M 922.372 669.994
C 925.787 667.172 930.493 665.674 934.163 663.084
C 939.949 659.003 944.94 653.587 949.543 648.256
C 952.574 644.746 955.026 640.529 957.25 636.473
C 957.812 635.448 958.629 632.142 960.118 632.783
C 960.844 637.322 960.286 642.405 960.233 647.003
C 960.154 653.892 960.423 660.801 960.113 667.686
C 961.159 668.512 963.699 668.117 965.011 668.16
C 968.339 668.268 971.674 668.281 975.003 668.234
C 976.692 668.211 978.694 667.932 980.284 668.603
C 980.318 669.811 980.487 670.979 980.624 672.179
C 973.84 671.928 966.99 672.461 960.213 672.644
C 960.126 684.421 960.283 696.214 960.08 707.991
C 959.974 714.109 960.026 720.242 959.976 726.368
C 959.942 730.42 959.692 734.601 960.067 738.635
C 960.592 744.273 959.455 749.711 961.825 755.121
C 962.668 757.044 964.043 759.373 966.084 760.187
C 972.447 762.724 979.142 759.887 983.005 754.596
C 984.911 751.985 986.008 749.196 987.061 746.178
C 987.309 745.466 987.655 743.703 988.803 744.381
C 987.893 754.062 987.154 763.302 979.846 770.65
C 967.798 782.763 945.914 779.427 938.396 764.104
C 933.511 754.149 934.895 741.695 934.931 730.964
C 934.999 711.329 934.684 691.7 934.747 672.077
C 930.696 671.637 926.606 671.887 922.557 671.5
C 922.04 671.049 922.219 670.61 922.372 669.994 Z"
opacity="1" fill="rgb(5,77,47)" fill-rule="evenodd" />

</svg>